<?xml version="1.0" encoding="UTF-8"?>
<svg width="320px" height="673px" viewBox="0 0 320 673" version="1.1" xmlns="http://www.w3.org/2000/svg" xmlns:xlink="http://www.w3.org/1999/xlink">
    <!-- Generator: Sketch 44.1 (41455) - http://www.bohemiancoding.com/sketch -->
    <title>Mobile</title>
    <desc>Created with Sketch.</desc>
    <defs>
        <path d="M0.186253211,367.048615 L355.018821,367.048615 L369.625753,735.276639 C347.533709,820.025325 331.053876,868.905055 320.186253,881.915829 C309.040449,895.259644 142.503495,924.11097 42.1845136,881.915829 C-58.1344681,839.720689 -64.5348063,837.621503 -37.768822,806.39287 C36.4494416,719.800316 -58.9399191,840.986183 -64.5348063,822.335953 C-86.0785743,750.52106 -36.9180858,682.797097 -37.768822,616.305538 C-38.2748697,576.75403 -58.3102122,508.383648 -37.768822,407.120622 C-24.0745618,339.611939 -11.4228701,326.254603 0.186253211,367.048615 Z" id="path-1"></path>
        <path d="M4.12114787e-13,-35.4051743 L354.832567,-35.4051743 L369.439499,289.938582 C347.347456,364.817336 330.867623,408.004476 320,419.5 C308.854196,431.289778 142.317242,456.781045 41.9982604,419.5 C-58.3207213,382.218955 -64.7210595,380.364242 -37.9550752,352.772533 C36.2631884,276.26465 -59.1261724,383.337068 -64.7210595,366.858866 C-86.2648276,303.40762 -37.104339,243.570868 -37.9550752,184.822995 C-38.4611229,149.877702 -58.4964654,89.4698148 -37.9550752,0 C-24.2608151,-59.6465432 -11.6091233,-71.4482679 4.12114787e-13,-35.4051743 Z" id="path-2"></path>
    </defs>
    <g id="Page-1" stroke="none" stroke-width="1" fill="none" fill-rule="evenodd">
        <g id="Mobile">
            <g id="Rectangle" transform="translate(149.812876, 624.000000) scale(1, -1) translate(-149.812876, -624.000000) ">
                <use fill="#FFCD94" fill-rule="evenodd" xlink:href="#path-1"></use>
                <path stroke="#000000" stroke-width="10" d="M350.213229,372.048615 L355.018821,372.048615 L350.02275,367.2468 L350.213229,372.048615 Z M364.600259,734.73311 L364.629682,735.474824 L364.787439,734.015401 C364.725002,734.254921 364.662608,734.494155 364.600259,734.733103 Z M-60.3825801,818.702116 C-60.5251918,818.772915 -60.6640081,818.838932 -60.798958,818.900119 C-61.2653084,819.111564 -61.6400607,819.243294 -61.9002526,819.301575 C-61.964976,819.316073 -61.999704,819.321191 -62.001086,819.321274 C-61.933406,819.317232 -61.8350718,819.321321 -61.7069731,819.341814 C-60.7567795,819.493823 -59.9372132,820.260732 -59.745662,820.899257 C-59.9650664,820.167885 -60.1773571,819.435538 -60.3825801,818.702116 Z M350.213229,372.048615 L364.600259,734.73311 C342.856719,818.063323 326.482576,866.578319 316.348821,878.710504 C315.752206,879.424774 312.541184,881.040245 307.541579,882.745242 C301.851955,884.685555 294.185041,886.690562 285.129874,888.584888 C265.161035,892.762334 240.207414,896.072096 214.301498,897.753435 C149.180186,901.97992 88.1144535,895.810129 44.1230646,877.306923 C2.11314406,859.637141 -8.35418157,855.129798 -20.6341143,849.165721 C-35.0320658,842.172972 -42.4885372,837.128162 -45.1778433,832.842022 C-47.9932294,828.35494 -45.6680308,823.292288 -33.972454,809.646727 C-25.3389722,799.573799 -18.5228592,791.755084 -13.654894,786.315779 C-9.75177951,781.954566 -7.1903595,779.2424 -6.76084827,778.904318 C-6.83578558,778.963303 -6.92514389,779.028108 -7.04686456,779.105946 C-7.36623735,779.310177 -7.70863688,779.485674 -8.20729816,779.637698 C-8.87757072,779.825681 -8.87757072,779.825681 -10.1283601,779.827899 C-11.8172035,779.49342 -11.8172035,779.49342 -13.4906076,778.032491 C-14.4965952,776.326634 -14.4965952,776.326634 -14.6157316,775.11561 C-14.5960966,774.231961 -14.5960966,774.231961 -14.4874616,773.739673 C-14.3955223,773.355608 -14.2869917,773.077009 -14.1620993,772.81791 C-14.1117019,772.713357 -14.0695219,772.635935 -14.03166,772.571797 C-14.0183723,772.549287 -14.0354059,772.575408 -14.0734852,772.630408 C-14.3896353,773.08704 -15.078777,773.978467 -16.0306232,775.152228 C-18.2103335,777.840119 -21.4213622,781.59302 -24.9553723,785.560224 C-34.0827894,795.806465 -43.4331209,805.382777 -50.8194387,811.748272 C-54.7953207,815.174669 -58.082551,817.560281 -60.3825801,818.702116 C-65.4492412,800.594973 -66.2079138,781.832234 -63.3486986,760.899342 C-61.0605457,744.147312 -57.5529062,730.187448 -49.079594,701.185971 C-42.629452,679.109168 -40.2710671,670.534048 -37.720559,658.878615 C-34.2951571,643.225053 -32.6002847,629.446038 -32.7692312,616.24157 C-32.8470714,610.157762 -33.3573362,603.276745 -34.3326021,594.196089 C-34.9125847,588.795898 -37.4975727,567.234767 -37.4191746,567.906553 C-40.5140601,541.386785 -42.0109138,521.290462 -42.0118265,498.57606 C-42.0130137,469.031709 -39.1949979,439.301801 -32.8686244,408.114636 C-26.227932,375.377971 -19.7922632,355.624389 -14.3792383,349.909455 C-13.2311416,348.697323 -13.5456822,348.692741 -12.4617373,349.91858 C-10.0554223,352.639894 -7.33492767,358.886881 -4.62280592,368.417173 L-3.58937334,372.048615 L350.213229,372.048615 Z"></path>
            </g>
            <g id="Rectangle">
                <use fill="#FFCD94" fill-rule="evenodd" xlink:href="#path-2"></use>
                <path stroke="#000000" stroke-width="10" d="M350.052015,-30.4051743 L354.832567,-30.4051743 L349.837599,-35.1809156 L350.052015,-30.4051743 Z M364.406967,289.326158 L364.444531,290.16284 L364.643868,288.52369 C364.56483,288.791582 364.485863,289.059067 364.406966,289.326147 L364.406967,289.326158 Z M-60.6703393,363.16075 C-60.7071127,363.175865 -60.7436198,363.190682 -60.7798593,363.205199 C-61.2685878,363.400984 -61.6698085,363.525593 -61.964326,363.58388 C-62.0859875,363.607958 -62.0983042,363.608608 -61.9832946,363.624864 C-61.1285443,363.74568 -60.251557,364.470748 -59.9865218,365.251336 C-60.2227743,364.55552 -60.4506941,363.858696 -60.6703393,363.16075 Z M350.052015,-30.4051743 L364.406967,289.326158 C342.728514,362.711906 326.395933,405.456319 316.366629,416.065089 C315.796202,416.668474 312.538505,418.116552 307.526701,419.62666 C301.817684,421.346844 294.132192,423.122639 285.058668,424.799741 C265.064325,428.495392 240.084699,431.422743 214.152826,432.909759 C148.955719,436.648369 87.807487,431.189755 43.7400021,414.813174 C1.72268777,399.198489 -8.74570595,395.215669 -21.0330473,389.942997 C-35.4090844,383.774035 -42.8894869,379.302445 -45.5228003,375.59432 C-47.9476673,372.179721 -45.7913137,368.031484 -34.3662485,356.253958 C-25.7344714,347.355892 -18.9201184,340.449538 -14.0541837,335.645705 C-10.1604495,331.801665 -7.60561751,329.411524 -7.18485654,329.118901 C-7.25954446,329.170843 -7.34817544,329.227635 -7.46724502,329.294909 C-7.7693124,329.465578 -8.092795,329.61207 -8.55117309,329.735538 C-9.15417247,329.884603 -9.15417247,329.884603 -10.2583766,329.88607 C-11.7630578,329.636243 -11.7630578,329.636243 -13.4751249,328.315438 C-14.6356126,326.57248 -14.6356126,326.57248 -14.8003757,325.197233 C-14.7750258,324.194448 -14.7750258,324.194448 -14.6371041,323.643087 C-14.5220161,323.218311 -14.3880875,322.914554 -14.233581,322.631349 C-14.1712177,322.517039 -14.1182434,322.431128 -14.0696104,322.358338 C-14.0461237,322.323185 -14.054776,322.334908 -14.0844696,322.372801 C-14.3901851,322.762937 -15.0728865,323.543187 -16.0169757,324.571799 C-18.1920375,326.94159 -21.399004,330.253229 -24.929159,333.754584 C-34.0489584,342.79998 -43.3913618,351.25385 -50.7706085,356.872628 C-54.9311525,360.04059 -58.3369463,362.201633 -60.6703393,363.16075 C-65.6375725,347.376828 -66.3729117,331.018657 -63.5476507,312.743269 C-61.2712366,298.018134 -57.7738535,285.720117 -49.3180173,260.149035 C-42.8595279,240.618079 -40.496828,233.027765 -37.937873,222.695633 C-34.4923172,208.783728 -32.7851489,196.521112 -32.9555994,184.750597 C-33.0341063,179.329277 -33.5472828,173.214939 -34.5268012,165.156843 C-35.1078474,160.376815 -37.6941063,141.317353 -37.6147766,141.917955 C-40.7039797,118.529732 -42.1971696,100.81731 -42.1980797,80.80438 C-42.1992633,54.7806937 -39.3899456,28.5942435 -33.0818634,1.11884155 C-26.4749506,-27.6581427 -20.0856406,-44.9854777 -14.7850273,-49.9299848 C-13.5844552,-51.0499 -13.5572484,-51.0495498 -12.4364402,-49.9296399 C-10.1059681,-47.6010358 -7.43709078,-42.1863031 -4.75922475,-33.8722752 L-3.64250592,-30.4051743 L350.052015,-30.4051743 Z"></path>
            </g>
            <path d="M7.12227865,154.485939 L312.277171,154.485939 L312.277171,154.485939 C316.292258,154.485939 319.685378,157.462058 320.20888,161.44287 L328.083149,221.320385 L328.083149,221.320385 C328.65922,225.700947 325.575072,229.719092 321.19451,230.295164 C319.975518,230.455469 318.735979,230.332652 317.572147,229.936251 C277.041187,216.131411 247.118556,208.649924 227.804254,207.491788 C215.92812,206.779665 184.064304,195.485947 137.666271,197.004355 C116.970564,197.681637 87.011065,199.956935 52.6624855,204.902408 C35.0103772,207.443941 20.360532,209.896266 8.71294989,212.259384 L8.7129499,212.259384 C4.38289071,213.137887 0.160516444,210.339848 -0.717986987,206.009789 C-0.824209445,205.486229 -0.87772135,204.953345 -0.87772135,204.419118 L-0.87772135,162.485939 L-0.87772135,162.485939 C-0.87772135,158.067661 2.70400065,154.485939 7.12227865,154.485939 Z" id="Rectangle-3" fill="#B80400" opacity="0.754245924" transform="translate(163.637313, 192.424698) rotate(10.000000) translate(-163.637313, -192.424698) "></path>
        </g>
        <path d="M16.8942001,358.921629 C27.2933718,323.940777 40.4969518,301.109901 56.5049401,290.429 C67.619982,283.012787 77.4026421,265.475294 106.346568,249.045208 C125.642519,238.091818 143.526996,231.857213 160,230.341394 C189.81576,237.991019 209.887174,244.225623 220.214242,249.045208 C235.704845,256.274586 254.622049,274.113358 264.276475,280.643261 C280.485905,291.60673 294.519424,320.222032 306.377033,366.489166" id="Path-3" stroke="#E4B98E" stroke-width="5"></path>
    </g>
</svg>