<?xml version="1.0" encoding="UTF-8"?>
<svg width="320px" height="673px" viewBox="0 0 320 673" version="1.1" xmlns="http://www.w3.org/2000/svg" xmlns:xlink="http://www.w3.org/1999/xlink">
    <!-- Generator: Sketch 44.1 (41455) - http://www.bohemiancoding.com/sketch -->
    <title>Mobile</title>
    <desc>Created with Sketch.</desc>
    <defs>
        <rect id="path-1" x="0" y="0" width="320" height="169"></rect>
        <linearGradient x1="31.5263995%" y1="0%" x2="57.1781932%" y2="100%" id="linearGradient-2">
            <stop stop-color="#EEEEEE" offset="0%"></stop>
            <stop stop-color="#D8D8D8" offset="100%"></stop>
        </linearGradient>
        <rect id="path-3" x="0" y="0" width="320" height="336"></rect>
        <path d="M4.12114787e-13,-35.4051743 L354.832567,-35.4051743 L369.439499,289.938582 C347.347456,364.817336 330.867623,408.004476 320,419.5 C318.216138,421.386929 329.985506,401.161002 320,383.842443 C310.014494,366.523884 215.010774,239.481444 160,239.093481 C85.9820603,238.571472 37.7941358,397.88769 4.68958206e-13,383.842443 C-100.318982,346.561398 -64.7210595,380.364242 -37.9550752,352.772533 C36.2631884,276.26465 -59.1261724,383.337068 -64.7210595,366.858866 C-86.2648276,303.40762 -37.104339,243.570868 -37.9550752,184.822995 C-38.4611229,149.877702 -58.4964654,89.4698148 -37.9550752,-7.81597009e-14 C-24.2608151,-59.6465432 -11.6091233,-71.4482679 4.12114787e-13,-35.4051743 Z" id="path-4"></path>
        <path d="M0.186253211,388.591889 L355.018821,388.591889 L369.625753,756.819913 C347.533709,841.568599 331.053876,890.448329 320.186253,903.459104 C312.867512,912.221139 238.57658,811.664186 160,809.2936 C98.7911629,807.446984 45.9051619,827.200652 25.3474641,850.043274 C4.78976629,872.885896 7.79980896,889.340772 0.186253211,886.138436 C-100.132728,843.943296 -64.5348063,859.164777 -37.768822,827.936144 C36.4494416,741.343591 -58.9399191,862.529457 -64.5348063,843.879228 C-86.0785743,772.064334 -36.9180858,704.340371 -37.768822,637.848813 C-38.2748697,598.297304 -58.3102122,529.926922 -37.768822,428.663897 C-24.0745618,361.155213 -11.4228701,347.797877 0.186253211,388.591889 Z" id="path-5"></path>
    </defs>
    <g id="Page-1" stroke="none" stroke-width="1" fill="none" fill-rule="evenodd">
        <g id="Mobile">
            <g id="centre" transform="translate(0.000000, 200.000000)">
                <ellipse id="Oval-2" fill="#FFBFBF" cx="175" cy="147.5" rx="175" ry="147.5"></ellipse>
                <polyline id="Path-2" stroke="#FF0000" stroke-width="5" transform="translate(236.500000, 221.000000) scale(-1, 1) translate(-236.500000, -221.000000) " points="217.000862 242 227.206381 232.206865 214 225.538961 239.339178 223.571429 234.314027 218.013915 229.955016 200 259 200.461967"></polyline>
                <polyline id="Path-2" stroke="#FF0000" stroke-width="5" transform="translate(187.500000, 230.000000) scale(-1, 1) translate(-187.500000, -230.000000) " points="168.000862 251 178.206381 241.206865 165 234.538961 190.339178 232.571429 185.314027 227.013915 180.955016 209 210 209.461967"></polyline>
                <polyline id="Path-2" stroke="#FF0000" stroke-width="5" transform="translate(127.500000, 232.000000) scale(-1, -1) translate(-127.500000, -232.000000) " points="108.000862 253 118.206381 243.206865 105 236.538961 130.339178 234.571429 125.314027 229.013915 120.955016 211 150 211.461967"></polyline>
                <polyline id="Path-2" stroke="#FF0000" stroke-width="5" transform="translate(83.000000, 194.000000) scale(-1, -1) translate(-83.000000, -194.000000) " points="63.9341765 215 73.912906 205.206865 61 198.538961 85.7760851 196.571429 80.8626042 191.013915 76.6004599 173 105 173.461967"></polyline>
                <polyline id="Path-2" stroke="#FF0000" stroke-width="5" transform="translate(84.000000, 88.000000) scale(-1, 1) translate(-84.000000, -88.000000) " points="64.9341765 109 74.912906 99.2068646 62 92.538961 86.7760851 90.5714286 81.8626042 85.0139147 77.6004599 67 106 67.4619666"></polyline>
                <polyline id="Path-2" stroke="#FF0000" stroke-width="5" transform="translate(96.500000, 236.000000) scale(-1, -1) translate(-96.500000, -236.000000) " points="87.4004024 257 92.1629779 247.206865 86 240.538961 97.8249497 238.571429 95.4798793 233.013915 93.445674 215 107 215.461967"></polyline>
                <polyline id="Path-2" stroke="#FF0000" stroke-width="5" transform="translate(74.500000, 44.000000) scale(-1, 1) translate(-74.500000, -44.000000) " points="65.4004024 65 70.1629779 55.2068646 64 48.538961 75.8249497 46.5714286 73.4798793 41.0139147 71.445674 23 85 23.4619666"></polyline>
                <polyline id="Path-2" stroke="#FF0000" stroke-width="5" points="172.200632 47 179.68468 37.2068646 170 30.538961 188.582064 28.5714286 184.896953 23.0139147 181.700345 5 203 5.4619666"></polyline>
                <polyline id="Path-2" stroke="#FF0000" stroke-width="5" transform="translate(119.500000, 55.000000) scale(-1, 1) translate(-119.500000, -55.000000) " points="105.200632 76 112.68468 66.2068646 103 59.538961 121.582064 57.5714286 117.896953 52.0139147 114.700345 34 136 34.4619666"></polyline>
                <polyline id="Path-2" stroke="#FF0000" stroke-width="5" transform="translate(151.500000, 55.000000) scale(-1, -1) translate(-151.500000, -55.000000) " points="137.200632 76 144.68468 66.2068646 135 59.538961 153.582064 57.5714286 149.896953 52.0139147 146.700345 34 168 34.4619666"></polyline>
                <polyline id="Path-2" stroke="#FF0000" stroke-width="5" points="171.200632 78 178.68468 68.2068646 169 61.538961 187.582064 59.5714286 183.896953 54.0139147 180.700345 36 202 36.4619666"></polyline>
                <polyline id="Path-2" stroke="#FF0000" stroke-width="5" points="203.200632 92 210.68468 82.2068646 201 75.538961 219.582064 73.5714286 215.896953 68.0139147 212.700345 50 234 50.4619666"></polyline>
                <polyline id="Path-2" stroke="#FF0000" stroke-width="5" transform="translate(225.500000, 92.000000) scale(-1, -1) translate(-225.500000, -92.000000) " points="211.200632 113 218.68468 103.206865 209 96.538961 227.582064 94.5714286 223.896953 89.0139147 220.700345 71 242 71.4619666"></polyline>
                <path d="M154,94.2121849 C171.338796,94.2121849 186.157197,100.179168 198.455645,112.113314 C210.754094,124.04746 216.903226,138.426912 216.903226,155.252101 C216.903226,172.07729 210.754094,186.456742 198.455645,198.390888 C186.157197,210.325033 171.338796,216.292017 154,216.292017 C136.661204,216.292017 121.842803,210.325033 109.544355,198.390888 C97.2459062,186.456742 91.0967742,172.07729 91.0967742,155.252101 C91.0967742,138.426912 97.2459062,124.04746 109.544355,112.113314 C121.842803,100.179168 136.661204,94.2121849 154,94.2121849 Z M154,203.966649 C167.91136,203.966649 179.755999,199.222408 189.534274,189.733784 C199.312549,180.24516 204.201613,168.751381 204.201613,155.252101 C204.201613,141.752821 199.312549,130.259042 189.534274,120.770418 C179.755999,111.281793 167.91136,106.537553 154,106.537553 C140.08864,106.537553 128.244001,111.281793 118.465726,120.770418 C108.687451,130.259042 103.798387,141.752821 103.798387,155.252101 C103.798387,168.751381 108.687451,180.24516 118.465726,189.733784 C128.244001,199.222408 140.08864,203.966649 154,203.966649 Z M176.076613,149.089417 C173.455632,149.089417 171.237912,148.257952 169.423387,146.594997 C167.608862,144.932043 166.701613,142.731106 166.701613,139.992122 C166.701613,137.253138 167.608862,135.052201 169.423387,133.389246 C171.237912,131.726292 173.455632,130.894827 176.076613,130.894827 C178.697594,130.894827 180.915314,131.726292 182.729839,133.389246 C184.544364,135.052201 185.451613,137.253138 185.451613,139.992122 C185.451613,142.731106 184.544364,144.932043 182.729839,146.594997 C180.915314,148.257952 178.697594,149.089417 176.076613,149.089417 Z M131.923387,149.089417 C129.302406,149.089417 127.084686,148.257952 125.270161,146.594997 C123.455636,144.932043 122.548387,142.731106 122.548387,139.992122 C122.548387,137.253138 123.455636,135.052201 125.270161,133.389246 C127.084686,131.726292 129.302406,130.894827 131.923387,130.894827 C134.544368,130.894827 136.762088,131.726292 138.576613,133.389246 C140.391138,135.052201 141.298387,137.253138 141.298387,139.992122 C141.298387,142.731106 140.391138,144.932043 138.576613,146.594997 C136.762088,148.257952 134.544368,149.089417 131.923387,149.089417 Z M154,188.70667 C146.741899,188.70667 140.239948,186.799192 134.493952,182.984178 C128.747955,179.169164 124.564529,174.033646 121.943548,167.577468 L186.056452,167.577468 C183.435471,174.033646 179.252045,179.169164 173.506048,182.984178 C167.760052,186.799192 161.258101,188.70667 154,188.70667 Z" id="ion-android-happy---Ionicons" fill="#001FF5"></path>
                <ellipse id="Oval" stroke="#979797" fill="#000000" cx="151.741935" cy="156.504202" rx="45.1612903" ry="43.8235294"></ellipse>
            </g>
            <g id="top" transform="translate(-10.000000, 0.000000)" opacity="0">
                <g id="bottom" transform="translate(0.000000, 167.021359)">
                    <g id="Rectangle-2">
                        <use fill="#D8D8D8" fill-rule="evenodd" xlink:href="#path-1"></use>
                        <rect stroke="#979797" stroke-width="1" x="0.5" y="0.5" width="319" height="168"></rect>
                    </g>
                </g>
                <g id="Rectangle-2">
                    <use fill="url(#linearGradient-2)" fill-rule="evenodd" xlink:href="#path-3"></use>
                    <rect stroke="#979797" stroke-width="1" x="0.5" y="0.5" width="319" height="335"></rect>
                </g>
            </g>
            <g id="Rectangle">
                <use fill="#FFCD94" fill-rule="evenodd" xlink:href="#path-4"></use>
                <path stroke="#000000" stroke-width="10" d="M350.052015,-30.4051743 L354.832567,-30.4051743 L349.837599,-35.1809156 L350.052015,-30.4051743 Z M364.406967,289.326158 L364.444531,290.16284 L364.643868,288.52369 C364.56483,288.791582 364.485863,289.059067 364.406966,289.326147 L364.406967,289.326158 Z M328.710877,394.235458 C323.895795,405.170588 319.76859,412.466571 316.366629,416.065089 C316.51638,415.906685 316.685362,415.749683 316.951078,415.556174 C317.312284,415.300236 317.312284,415.300236 318.066891,414.950948 C319.197302,414.565991 319.197302,414.565991 321.332701,414.851883 C323.541583,416.043604 323.541583,416.043604 324.424314,417.662351 C324.793393,418.862984 324.793393,418.862984 324.811828,419.505272 C324.818029,419.962245 324.771909,420.275084 324.700907,420.581859 C324.671734,420.707904 324.672101,420.706736 324.686077,420.666809 C324.730528,420.539819 324.794135,420.366329 324.905857,420.066739 C325.780259,417.721973 326.164948,416.631182 326.729161,414.74926 C328.801653,407.836507 329.663549,400.972545 328.710877,394.23546 Z M-60.6703393,363.16075 C-60.7071127,363.175865 -60.7436198,363.190682 -60.7798593,363.205199 C-61.2685878,363.400984 -61.6698085,363.525593 -61.964326,363.58388 C-62.0859875,363.607958 -62.0983042,363.608608 -61.9832946,363.624864 C-61.1285443,363.74568 -60.251557,364.470748 -59.9865218,365.251336 C-60.2227743,364.55552 -60.4506941,363.858696 -60.6703393,363.16075 Z M-44.1371743,364.005487 C-46.4937653,363.36585 -48.7277257,362.791393 -50.8406389,362.280148 C-52.9624429,361.766752 -54.8652896,361.32174 -56.5737879,360.951321 C-58.482728,360.537444 -60.1490426,360.216689 -61.6070583,359.997716 C-66.366553,359.282909 -68.9063969,359.652704 -70.4206444,361.408355 C-71.1741325,362.413136 -71.1741325,362.413136 -71.5952676,364.026832 C-71.60625,365.743424 -71.60625,365.743424 -71.0623381,367.017462 C-69.8865836,368.587301 -69.8865836,368.587301 -69.1550224,369.016439 C-68.6524154,369.312701 -68.2418324,369.461585 -67.7856982,369.582158 C-67.4072786,369.682188 -67.0247008,369.746307 -66.6001032,369.794554 C-65.8984173,369.874286 -65.0383779,369.910838 -64.0921982,369.898093 C-61.7608084,369.866689 -59.0911679,369.549359 -56.2857284,368.893557 C-52.1341657,367.923083 -48.0446729,366.317464 -44.1371743,364.005487 C-40.713606,361.979841 -37.4297447,359.411963 -34.3662485,356.253958 C-25.7344714,347.355892 -18.9201184,340.449538 -14.0541837,335.645705 C-10.1604495,331.801665 -7.60561751,329.411524 -7.18485654,329.118901 C-7.25954446,329.170843 -7.34817544,329.227635 -7.46724502,329.294909 C-7.7693124,329.465578 -8.092795,329.61207 -8.55117309,329.735538 C-9.15417247,329.884603 -9.15417247,329.884603 -10.2583766,329.88607 C-11.7630578,329.636243 -11.7630578,329.636243 -13.4751249,328.315438 C-14.6356126,326.57248 -14.6356126,326.57248 -14.8003757,325.197233 C-14.7750258,324.194448 -14.7750258,324.194448 -14.6371041,323.643087 C-14.5220161,323.218311 -14.3880875,322.914554 -14.233581,322.631349 C-14.1712177,322.517039 -14.1182434,322.431128 -14.0696104,322.358338 C-14.0461237,322.323185 -14.054776,322.334908 -14.0844696,322.372801 C-14.3901851,322.762937 -15.0728865,323.543187 -16.0169757,324.571799 C-18.1920375,326.94159 -21.399004,330.253229 -24.929159,333.754584 C-34.0489584,342.79998 -43.3913618,351.25385 -50.7706085,356.872628 C-52.9213069,358.510234 -54.8703258,359.878777 -56.5737879,360.951321 C-58.1656873,361.953622 -59.5431407,362.697426 -60.6703393,363.16075 C-61.0012998,362.109087 -61.3134733,361.054875 -61.6070583,359.997716 C-65.7197551,345.188468 -66.1846682,329.800991 -63.5476507,312.743269 C-61.2712366,298.018134 -57.7738535,285.720117 -49.3180173,260.149035 C-42.8595279,240.618079 -40.496828,233.027765 -37.937873,222.695633 C-34.4923172,208.783728 -32.7851489,196.521112 -32.9555994,184.750597 C-33.0341063,179.329277 -33.5472828,173.214939 -34.5268012,165.156843 C-35.1078474,160.376815 -37.6941063,141.317353 -37.6147766,141.917955 C-40.7039797,118.529732 -42.1971696,100.81731 -42.1980797,80.80438 C-42.1992633,54.7806937 -39.3899456,28.5942435 -33.0818634,1.11884155 C-26.4749506,-27.6581427 -20.0856406,-44.9854777 -14.7850273,-49.9299848 C-13.5844552,-51.0499 -13.5572484,-51.0495498 -12.4364402,-49.9296399 C-10.1059681,-47.6010358 -7.43709078,-42.1863031 -4.75922475,-33.8722752 L-3.64250592,-30.4051743 L350.052015,-30.4051743 L364.406967,289.326158 C350.081892,337.819299 338.091112,372.932791 328.710877,394.235458 C328.438715,392.310789 328.018457,390.396473 327.436021,388.494333 C326.676727,386.014602 325.646853,383.626131 324.331574,381.344951 C316.490892,367.746309 287.243324,330.168922 260.530828,301.69786 C220.97805,259.541201 186.294163,234.278796 160.035262,234.093606 C142.035773,233.966665 124.837965,242.313145 107.616291,258.011273 C94.1149161,270.318225 81.3953468,286.123351 65.497871,309.057328 C61.1397204,315.344472 47.1608644,336.05192 45.7829916,338.065379 C38.464383,348.759921 33.0612504,356.184934 28.0220007,362.289876 C16.4830688,376.269043 8.077963,381.510315 1.74174176,379.155617 C-16.8862625,372.232984 -32.1090532,367.270218 -44.1371743,364.005487 Z"></path>
            </g>
            <g id="Rectangle" transform="translate(149.812876, 634.771637) scale(1, -1) translate(-149.812876, -634.771637) ">
                <use fill="#FFCD94" fill-rule="evenodd" xlink:href="#path-5"></use>
                <path stroke="#000000" stroke-width="10" d="M350.213229,393.591889 L355.018821,393.591889 L350.02275,388.790074 L350.213229,393.591889 Z M364.600259,756.276385 L364.629682,757.018098 L364.787439,755.558675 C364.725002,755.798196 364.662608,756.037429 364.600259,756.276377 Z M317.837641,898.275045 C317.327302,899.01688 316.830997,899.676514 316.348821,900.253778 C316.903744,899.589422 317.692356,899.156516 318.489924,899.034224 C318.753338,898.993835 318.980832,898.991783 319.171093,899.012909 C319.258737,899.022641 319.305278,899.032519 319.317007,899.03602 C319.030717,898.950569 318.522384,898.696906 317.837641,898.275045 Z M1.02739304,881.067919 C0.957408853,881.215488 0.902641042,881.32554 0.865187288,881.392689 C0.670583185,881.741585 0.518739222,881.967922 0.424839169,882.076775 C0.471070064,882.023182 0.606912241,881.911369 0.846372062,881.790887 C1.20222948,881.61184 1.60768752,881.525113 1.96928663,881.538508 C2.14005205,881.544835 2.19152786,881.557594 2.12480419,881.529529 C1.75607237,881.374437 1.39027913,881.220572 1.02739304,881.067919 Z M-60.7703481,852.789124 C-61.1616582,852.461809 -61.4342505,852.189203 -61.5933678,851.982184 C-61.578764,852.001184 -61.4781593,852.24059 -61.4556488,852.651051 C-61.4295331,853.12725 -61.5447684,853.50075 -61.6544679,853.669879 C-61.5534833,853.514187 -61.2638962,853.207281 -60.7703481,852.789124 Z M-60.3825801,840.24539 C-60.5251918,840.316189 -60.6640081,840.382206 -60.798958,840.443393 C-61.2653084,840.654838 -61.6400607,840.786568 -61.9002526,840.84485 C-61.964976,840.859347 -61.999704,840.864466 -62.001086,840.864548 C-61.933406,840.860506 -61.8350718,840.864595 -61.7069731,840.885088 C-60.7567795,841.037097 -59.9372132,841.804006 -59.745662,842.442531 C-59.9650664,841.711159 -60.1773571,840.978813 -60.3825801,840.24539 Z M350.213229,393.591889 L364.600259,756.276385 C343.891303,835.641643 328.052936,883.425966 317.837641,898.275045 C317.523357,898.081419 317.171911,897.852361 316.787714,897.587871 C314.169369,895.785347 310.573251,892.763178 304.952732,887.703927 C303.343706,886.25558 291.380734,875.336683 287.348414,871.721987 C279.444764,864.636909 272.368858,858.552735 265.162498,852.73506 C227.960349,822.701859 193.830179,805.311952 160.150777,804.295874 C101.413815,802.523832 45.010268,820.720642 21.6309398,846.69851 C15.0700541,853.988618 10.3445117,861.101987 6.61233659,868.617847 C5.05077254,871.762527 1.88815535,879.252912 1.02739304,881.067919 C-32.1970595,867.091647 -41.0522354,863.283476 -49.6575108,859.131543 C-54.655731,856.719966 -58.0009818,854.854639 -60.0092532,853.38204 C-60.3000282,853.168824 -60.5534288,852.970568 -60.7703481,852.789124 C-60.7632896,852.783144 -60.7561893,852.77714 -60.7490473,852.771115 C-59.6535614,851.846854 -58.977891,851.38746 -54.4984045,848.45406 C-45.5536366,842.596561 -39.887881,838.091698 -33.972454,831.190002 C-25.3389722,821.117073 -18.5228592,813.298358 -13.654894,807.859053 C-9.75177951,803.49784 -7.1903595,800.785674 -6.76084827,800.447592 C-6.83578558,800.506578 -6.92514389,800.571382 -7.04686456,800.64922 C-7.36623735,800.853451 -7.70863688,801.028948 -8.20729816,801.180972 C-8.87757072,801.368956 -8.87757072,801.368956 -10.1283601,801.371173 C-11.8172035,801.036694 -11.8172035,801.036694 -13.4906076,799.575765 C-14.4965952,797.869909 -14.4965952,797.869909 -14.6157316,796.658884 C-14.5960966,795.775235 -14.5960966,795.775235 -14.4874616,795.282948 C-14.3955223,794.898882 -14.2869917,794.620283 -14.1620993,794.361184 C-14.1117019,794.256631 -14.0695219,794.179209 -14.03166,794.115071 C-14.0183723,794.092561 -14.0354059,794.118683 -14.0734852,794.173683 C-14.3896353,794.630315 -15.078777,795.521742 -16.0306232,796.695502 C-18.2103335,799.383393 -21.4213622,803.136295 -24.9553723,807.103498 C-34.0827894,817.349739 -43.4331209,826.926052 -50.8194387,833.291547 C-54.7953207,836.717944 -58.082551,839.103556 -60.3825801,840.24539 C-65.4492412,822.138247 -66.2079138,803.375508 -63.3486986,782.442616 C-61.0605457,765.690586 -57.5529062,751.730722 -49.079594,722.729245 C-42.629452,700.652442 -40.2710671,692.077322 -37.720559,680.42189 C-34.2951571,664.768327 -32.6002847,650.989312 -32.7692312,637.784845 C-32.8470714,631.701036 -33.3573362,624.820019 -34.3326021,615.739363 C-34.9125847,610.339172 -37.4975727,588.778042 -37.4191746,589.449827 C-40.5140601,562.93006 -42.0109138,542.833736 -42.0118265,520.119334 C-42.0130137,490.574984 -39.1949979,460.845075 -32.8686244,429.657911 C-26.227932,396.921245 -19.7922632,377.167664 -14.3792383,371.452729 C-13.2311416,370.240598 -13.5456822,370.236016 -12.4617373,371.461854 C-10.0554223,374.183168 -7.33492767,380.430156 -4.62280592,389.960447 L-3.58937334,393.591889 L350.213229,393.591889 Z"></path>
            </g>
            <path d="M8.57379394,152.477983 C71.0897761,136.20966 118.38753,128.075498 150.467056,128.075498 C182.994401,128.075498 238.20052,136.438345 316.085415,153.164039 L316.085415,153.164038 C319.393062,153.874352 321.896332,156.588468 322.337428,159.942645 L330.391714,221.189049 L330.391714,221.189049 C330.967785,225.569611 327.883637,229.587756 323.503075,230.163828 C322.284083,230.324133 321.044544,230.201316 319.880712,229.804915 C279.349752,216.000075 249.427121,208.518588 230.112819,207.360452 C218.236685,206.648329 186.372869,195.354611 139.974836,196.873019 C125.427684,197.349085 101.230869,214.710924 86.716152,232.645154 C72.2014355,250.579383 46.9508465,284.644642 36.7461149,286.113909 C35.6404436,286.273102 34.5894623,286.485251 33.5931711,286.750356 L33.593171,286.750356 C29.3234662,287.88649 24.941168,285.346229 23.8050341,281.076524 C23.7463739,280.856073 23.6971698,280.633214 23.6575568,280.408557 L2.71004615,161.609321 L2.71004631,161.609321 C1.98589566,157.502459 4.53798654,153.528208 8.57379394,152.477983 Z" id="Rectangle-3" fill="#B80400" opacity="0.754245924" transform="translate(166.524189, 207.548423) rotate(10.000000) translate(-166.524189, -207.548423) "></path>
        </g>
    </g>
</svg>