<?xml version="1.0" encoding="UTF-8"?>
<svg width="320px" height="673px" viewBox="0 0 320 673" version="1.1" xmlns="http://www.w3.org/2000/svg" xmlns:xlink="http://www.w3.org/1999/xlink">
    <!-- Generator: Sketch 44.1 (41455) - http://www.bohemiancoding.com/sketch -->
    <title>Mobile</title>
    <desc>Created with Sketch.</desc>
    <defs>
        <linearGradient x1="50%" y1="0%" x2="50%" y2="46.7736484%" id="linearGradient-1">
            <stop stop-color="#DD0900" stop-opacity="0.75" offset="0%"></stop>
            <stop stop-color="#B80400" stop-opacity="0.75" offset="100%"></stop>
        </linearGradient>
        <path d="M0,0.509014032 L320,0.509014032 L320,673.509014 C329.084651,430.251599 308.477162,255.72969 258.177535,149.943287 C207.877908,44.1568843 121.81873,-5.65454008 0,0.509014032 Z" id="path-2"></path>
        <linearGradient x1="47.046688%" y1="0%" x2="50%" y2="27.9190859%" id="linearGradient-3">
            <stop stop-color="#B80400" stop-opacity="0.75" offset="0%"></stop>
            <stop stop-color="#DD0900" stop-opacity="0.75" offset="100%"></stop>
        </linearGradient>
        <path d="M0,0.509014032 L320,0.509014032 L320,673.509014 C329.084651,430.251599 308.477162,255.72969 258.177535,149.943287 C207.877908,44.1568843 121.81873,-5.65454008 0,0.509014032 Z" id="path-4"></path>
    </defs>
    <g id="Page-1" stroke="none" stroke-width="1" fill="none" fill-rule="evenodd">
        <g id="Mobile">
            <ellipse id="Oval-5" fill="#FFFFFF" cx="194.5" cy="367" rx="395.5" ry="646"></ellipse>
            <g id="centre" transform="translate(91.000000, 294.000000)" fill="#001FF5">
                <path d="M63,0.212184874 C80.3387964,0.212184874 95.1571966,6.17916827 107.455645,18.1133141 C119.754094,30.0474599 125.903226,44.4269117 125.903226,61.2521008 C125.903226,78.07729 119.754094,92.4567418 107.455645,104.390888 C95.1571966,116.325033 80.3387964,122.292017 63,122.292017 C45.6612036,122.292017 30.8428034,116.325033 18.5443548,104.390888 C6.24590625,92.4567418 0.0967741935,78.07729 0.0967741935,61.2521008 C0.0967741935,44.4269117 6.24590625,30.0474599 18.5443548,18.1133141 C30.8428034,6.17916827 45.6612036,0.212184874 63,0.212184874 Z M63,109.966649 C76.9113599,109.966649 88.7559995,105.222408 98.5342742,95.7337841 C108.312549,86.24516 113.201613,74.7513805 113.201613,61.2521008 C113.201613,47.7528212 108.312549,36.2590417 98.5342742,26.7704175 C88.7559995,17.2817934 76.9113599,12.5375525 63,12.5375525 C49.0886401,12.5375525 37.2440005,17.2817934 27.4657258,26.7704175 C17.6874511,36.2590417 12.7983871,47.7528212 12.7983871,61.2521008 C12.7983871,74.7513805 17.6874511,86.24516 27.4657258,95.7337841 C37.2440005,105.222408 49.0886401,109.966649 63,109.966649 Z M85.0766129,55.089417 C82.4556321,55.089417 80.2379123,54.2579521 78.4233871,52.5949974 C76.6088619,50.9320426 75.7016129,48.7311061 75.7016129,45.9921218 C75.7016129,43.2531376 76.6088619,41.0522011 78.4233871,39.3892463 C80.2379123,37.7262916 82.4556321,36.8948267 85.0766129,36.8948267 C87.6975937,36.8948267 89.9153135,37.7262916 91.7298387,39.3892463 C93.5443639,41.0522011 94.4516129,43.2531376 94.4516129,45.9921218 C94.4516129,48.7311061 93.5443639,50.9320426 91.7298387,52.5949974 C89.9153135,54.2579521 87.6975937,55.089417 85.0766129,55.089417 Z M40.9233871,55.089417 C38.3024062,55.089417 36.0846865,54.2579521 34.2701613,52.5949974 C32.4556361,50.9320426 31.5483871,48.7311061 31.5483871,45.9921218 C31.5483871,43.2531376 32.4556361,41.0522011 34.2701613,39.3892463 C36.0846865,37.7262916 38.3024062,36.8948267 40.9233871,36.8948267 C43.5443679,36.8948267 45.7620877,37.7262916 47.5766129,39.3892463 C49.3911381,41.0522011 50.2983871,43.2531376 50.2983871,45.9921218 C50.2983871,48.7311061 49.3911381,50.9320426 47.5766129,52.5949974 C45.7620877,54.2579521 43.5443679,55.089417 40.9233871,55.089417 Z M63,94.7066702 C55.7418992,94.7066702 49.2399481,92.7991919 43.4939516,88.984178 C37.7479551,85.1691642 33.5645292,80.0336457 30.9435484,73.5774685 L95.0564516,73.5774685 C92.4354708,80.0336457 88.2520449,85.1691642 82.5060484,88.984178 C76.7600519,92.7991919 70.2581008,94.7066702 63,94.7066702 Z" id="ion-android-happy---Ionicons"></path>
            </g>
            <g id="Rectangle-4" transform="translate(161.042332, 336.754507) scale(-1, -1) translate(-161.042332, -336.754507) ">
                <use fill="url(#linearGradient-1)" fill-rule="evenodd" xlink:href="#path-2"></use>
                <path stroke="#000000" stroke-width="1" d="M319.5,1.00901403 L320,1.00901403 L319.5,0.509014032 L319.5,1.00901403 Z M52.3765453,1.00901403 L319.5,1.00901403 L319.5,449.756284 C312.193225,319.71934 291.905161,219.712318 258.62909,149.728581 C215.785822,59.6238337 147.016128,10.041513 52.3765453,1.00901403 Z M320.5,642.764825 L320.5,673.509014 L319.500348,673.490354 C319.887504,663.123593 320.220721,652.881736 320.500001,642.764784 L320.5,642.764825 Z M320.5,495.648499 L320.5,642.764825 C321.946185,590.376689 321.946101,541.337845 320.5,495.648499 Z"></path>
            </g>
            <g id="Rectangle-4">
                <use fill="url(#linearGradient-3)" fill-rule="evenodd" xlink:href="#path-4"></use>
                <path stroke="#000000" stroke-width="1" d="M319.5,1.00901403 L320,1.00901403 L319.5,0.509014032 L319.5,1.00901403 Z M52.3765453,1.00901403 L319.5,1.00901403 L319.5,449.756284 C312.193225,319.71934 291.905161,219.712318 258.62909,149.728581 C215.785822,59.6238337 147.016128,10.041513 52.3765453,1.00901403 Z M320.5,642.764825 L320.5,673.509014 L319.500348,673.490354 C319.887504,663.123593 320.220721,652.881736 320.500001,642.764784 L320.5,642.764825 Z M320.5,495.648499 L320.5,642.764825 C321.946185,590.376689 321.946101,541.337845 320.5,495.648499 Z"></path>
            </g>
            <text id="Headshop" font-family="Lobster-Regular, Lobster" font-size="60" font-weight="normal" fill="#001FF5">
                <tspan x="42.18" y="267">Headshop</tspan>
            </text>
        </g>
    </g>
</svg>