<?xml version="1.0" encoding="UTF-8"?>
<svg width="320px" height="673px" viewBox="0 0 320 673" version="1.1" xmlns="http://www.w3.org/2000/svg" xmlns:xlink="http://www.w3.org/1999/xlink">
    <!-- Generator: Sketch 44.1 (41455) - http://www.bohemiancoding.com/sketch -->
    <title>Mobile</title>
    <desc>Created with Sketch.</desc>
    <defs>
        <path d="M4.12114787e-13,-35.4051743 L354.832567,-35.4051743 L369.439499,289.938582 C347.347456,364.817336 330.867623,408.004476 320,419.5 C318.216138,421.386929 329.985506,401.161002 320,383.842443 C316.388222,377.578284 374.774299,191.058237 354.832567,137.658584 C334.890836,84.2589296 195.113262,62.0448694 160,61.797234 C112.625423,61.4631259 30.2591705,63.0741841 1.42108547e-14,158.620791 C-30.2591705,254.167397 13.6043082,388.898144 4.68958206e-13,383.842443 C-100.318982,346.561398 -64.7210595,380.364242 -37.9550752,352.772533 C36.2631884,276.26465 -59.1261724,383.337068 -64.7210595,366.858866 C-86.2648276,303.40762 -37.104339,243.570868 -37.9550752,184.822995 C-38.4611229,149.877702 -58.4964654,89.4698148 -37.9550752,-6.39488462e-14 C-24.2608151,-59.6465432 -11.6091233,-71.4482679 4.12114787e-13,-35.4051743 Z" id="path-1"></path>
        <path d="M0.186253211,389.072442 L355.018821,389.072442 L369.625753,757.300466 C347.533709,842.049151 331.053876,890.928882 320.186253,903.939656 C317.485025,907.17358 364.847885,779.507351 345.301046,741.671131 C325.754207,703.834911 199.388125,684.912776 149.812876,683.417135 C88.6040392,681.570519 50.5981814,703.134998 30.0404836,725.97762 C9.48278577,748.820242 7.79980896,889.821324 0.186253211,886.618988 C-100.132728,844.423848 -64.5348063,859.645329 -37.768822,828.416696 C36.4494416,741.824143 -58.9399191,863.01001 -64.5348063,844.35978 C-86.0785743,772.544887 -36.9180858,704.820923 -37.768822,638.329365 C-38.2748697,598.777857 -58.3102122,530.407475 -37.768822,429.144449 C-24.0745618,361.635765 -11.4228701,348.27843 0.186253211,389.072442 Z" id="path-2"></path>
    </defs>
    <g id="Page-1" stroke="none" stroke-width="1" fill="none" fill-rule="evenodd">
        <ellipse id="Oval-4" fill="#FFFFFF" cx="160" cy="336.5" rx="160" ry="336.5"></ellipse>
        <g id="Mobile">
            <g id="centre" transform="translate(91.000000, 294.000000)">
                <path d="M63,0.212184874 C80.3387964,0.212184874 95.1571966,6.17916827 107.455645,18.1133141 C119.754094,30.0474599 125.903226,44.4269117 125.903226,61.2521008 C125.903226,78.07729 119.754094,92.4567418 107.455645,104.390888 C95.1571966,116.325033 80.3387964,122.292017 63,122.292017 C45.6612036,122.292017 30.8428034,116.325033 18.5443548,104.390888 C6.24590625,92.4567418 0.0967741935,78.07729 0.0967741935,61.2521008 C0.0967741935,44.4269117 6.24590625,30.0474599 18.5443548,18.1133141 C30.8428034,6.17916827 45.6612036,0.212184874 63,0.212184874 Z M63,109.966649 C76.9113599,109.966649 88.7559995,105.222408 98.5342742,95.7337841 C108.312549,86.24516 113.201613,74.7513805 113.201613,61.2521008 C113.201613,47.7528212 108.312549,36.2590417 98.5342742,26.7704175 C88.7559995,17.2817934 76.9113599,12.5375525 63,12.5375525 C49.0886401,12.5375525 37.2440005,17.2817934 27.4657258,26.7704175 C17.6874511,36.2590417 12.7983871,47.7528212 12.7983871,61.2521008 C12.7983871,74.7513805 17.6874511,86.24516 27.4657258,95.7337841 C37.2440005,105.222408 49.0886401,109.966649 63,109.966649 Z M85.0766129,55.089417 C82.4556321,55.089417 80.2379123,54.2579521 78.4233871,52.5949974 C76.6088619,50.9320426 75.7016129,48.7311061 75.7016129,45.9921218 C75.7016129,43.2531376 76.6088619,41.0522011 78.4233871,39.3892463 C80.2379123,37.7262916 82.4556321,36.8948267 85.0766129,36.8948267 C87.6975937,36.8948267 89.9153135,37.7262916 91.7298387,39.3892463 C93.5443639,41.0522011 94.4516129,43.2531376 94.4516129,45.9921218 C94.4516129,48.7311061 93.5443639,50.9320426 91.7298387,52.5949974 C89.9153135,54.2579521 87.6975937,55.089417 85.0766129,55.089417 Z M40.9233871,55.089417 C38.3024062,55.089417 36.0846865,54.2579521 34.2701613,52.5949974 C32.4556361,50.9320426 31.5483871,48.7311061 31.5483871,45.9921218 C31.5483871,43.2531376 32.4556361,41.0522011 34.2701613,39.3892463 C36.0846865,37.7262916 38.3024062,36.8948267 40.9233871,36.8948267 C43.5443679,36.8948267 45.7620877,37.7262916 47.5766129,39.3892463 C49.3911381,41.0522011 50.2983871,43.2531376 50.2983871,45.9921218 C50.2983871,48.7311061 49.3911381,50.9320426 47.5766129,52.5949974 C45.7620877,54.2579521 43.5443679,55.089417 40.9233871,55.089417 Z M63,94.7066702 C55.7418992,94.7066702 49.2399481,92.7991919 43.4939516,88.984178 C37.7479551,85.1691642 33.5645292,80.0336457 30.9435484,73.5774685 L95.0564516,73.5774685 C92.4354708,80.0336457 88.2520449,85.1691642 82.5060484,88.984178 C76.7600519,92.7991919 70.2581008,94.7066702 63,94.7066702 Z" id="ion-android-happy---Ionicons" fill="#001FF5"></path>
                <ellipse id="Oval" stroke="#979797" fill="#000000" cx="60.7419355" cy="62.5042017" rx="45.1612903" ry="43.8235294"></ellipse>
            </g>
            <g id="Rectangle">
                <use fill="#FFCD94" fill-rule="evenodd" xlink:href="#path-1"></use>
                <path stroke="#000000" stroke-width="10" d="M350.052015,-30.4051743 L354.832567,-30.4051743 L349.837599,-35.1809156 L350.052015,-30.4051743 Z M364.406967,289.326158 L364.444531,290.16284 L364.643868,288.52369 C364.56483,288.791582 364.485863,289.059067 364.406966,289.326147 L364.406967,289.326158 Z M328.710877,394.235458 C323.895795,405.170588 319.76859,412.466571 316.366629,416.065089 C316.51638,415.906685 316.685362,415.749683 316.951078,415.556174 C317.312284,415.300236 317.312284,415.300236 318.066891,414.950948 C319.197302,414.565991 319.197302,414.565991 321.332701,414.851883 C323.541583,416.043604 323.541583,416.043604 324.424314,417.662351 C324.793393,418.862984 324.793393,418.862984 324.811828,419.505272 C324.818029,419.962245 324.771909,420.275084 324.700907,420.581859 C324.671734,420.707904 324.672101,420.706736 324.686077,420.666809 C324.730528,420.539819 324.794135,420.366329 324.905857,420.066739 C325.780259,417.721973 326.164948,416.631182 326.729161,414.74926 C328.801653,407.836507 329.663549,400.972545 328.710877,394.23546 Z M324.862477,382.300389 C324.690975,381.979873 324.51402,381.66138 324.331574,381.344951 C324.76529,382.097175 324.832582,382.487741 324.838814,382.825548 C324.836711,382.71156 324.844084,382.53369 324.862477,382.300389 Z M-2.30645735,377.662363 C-2.29222429,378.679126 -2.32248678,379.515021 -2.39656293,380.173685 C-2.43676762,380.531173 -2.48489533,380.783046 -2.52420898,380.911919 C-2.521866,380.904239 -2.50856806,380.869542 -2.47775802,380.805796 C-2.40942156,380.664407 -2.31099841,380.504533 -2.1718989,380.330297 C-1.19250004,379.103507 0.53015751,378.705362 1.74174176,379.155617 C0.374012401,378.647334 -0.975359526,378.149618 -2.30645735,377.662363 Z M-60.6703393,363.16075 C-60.7071127,363.175865 -60.7436198,363.190682 -60.7798593,363.205199 C-61.2685878,363.400984 -61.6698085,363.525593 -61.964326,363.58388 C-62.0859875,363.607958 -62.0983042,363.608608 -61.9832946,363.624864 C-61.1285443,363.74568 -60.251557,364.470748 -59.9865218,365.251336 C-60.2227743,364.55552 -60.4506941,363.858696 -60.6703393,363.16075 Z M357.293438,130.884799 L360.863615,210.404215 C365.340589,176.372741 365.242397,151.241792 359.516607,135.909361 C358.881897,134.209746 358.140032,132.534941 357.293438,130.884799 Z M-8.52252464,329.727743 C-8.4985344,329.892703 -8.47388683,330.062151 -8.4486086,330.235912 C-7.00480047,340.160585 -3.50353378,364.156881 -2.90841665,369.568923 C-2.53330257,372.98024 -2.3343624,375.668918 -2.30645735,377.662363 C-19.1044548,371.513373 -32.9921975,367.03051 -44.1371743,364.005487 C-46.4937653,363.36585 -48.7277257,362.791393 -50.8406389,362.280148 C-52.9624429,361.766752 -54.8652896,361.32174 -56.5737879,360.951321 C-58.482728,360.537444 -60.1490426,360.216689 -61.6070583,359.997716 C-66.366553,359.282909 -68.9063969,359.652704 -70.4206444,361.408355 C-71.1741325,362.413136 -71.1741325,362.413136 -71.5952676,364.026832 C-71.60625,365.743424 -71.60625,365.743424 -71.0623381,367.017462 C-69.8865836,368.587301 -69.8865836,368.587301 -69.1550224,369.016439 C-68.6524154,369.312701 -68.2418324,369.461585 -67.7856982,369.582158 C-67.4072786,369.682188 -67.0247008,369.746307 -66.6001032,369.794554 C-65.8984173,369.874286 -65.0383779,369.910838 -64.0921982,369.898093 C-61.7608084,369.866689 -59.0911679,369.549359 -56.2857284,368.893557 C-52.1341657,367.923083 -48.0446729,366.317464 -44.1371743,364.005487 C-40.713606,361.979841 -37.4297447,359.411963 -34.3662485,356.253958 C-25.7344714,347.355892 -18.9201184,340.449538 -14.0541837,335.645705 C-11.5738505,333.197027 -9.63681307,331.338308 -8.4486086,330.235912 C-7.77151836,329.60772 -7.33759012,329.225121 -7.18485654,329.118901 C-7.25954446,329.170843 -7.34817544,329.227635 -7.46724502,329.294909 C-7.76298054,329.462001 -8.07924289,329.605918 -8.52252464,329.727743 C-8.53201555,329.730352 -8.54156468,329.73295 -8.55117309,329.735538 C-9.15417247,329.884603 -9.15417247,329.884603 -10.2583766,329.88607 C-11.7630578,329.636243 -11.7630578,329.636243 -13.4751249,328.315438 C-14.6356126,326.57248 -14.6356126,326.57248 -14.8003757,325.197233 C-14.7750258,324.194448 -14.7750258,324.194448 -14.6371041,323.643087 C-14.5220161,323.218311 -14.3880875,322.914554 -14.233581,322.631349 C-14.1712177,322.517039 -14.1182434,322.431128 -14.0696104,322.358338 C-14.0461237,322.323185 -14.054776,322.334908 -14.0844696,322.372801 C-14.3901851,322.762937 -15.0728865,323.543187 -16.0169757,324.571799 C-18.1920375,326.94159 -21.399004,330.253229 -24.929159,333.754584 C-34.0489584,342.79998 -43.3913618,351.25385 -50.7706085,356.872628 C-52.9213069,358.510234 -54.8703258,359.878777 -56.5737879,360.951321 C-58.1656873,361.953622 -59.5431407,362.697426 -60.6703393,363.16075 C-61.0012998,362.109087 -61.3134733,361.054875 -61.6070583,359.997716 C-65.7197551,345.188468 -66.1846682,329.800991 -63.5476507,312.743269 C-61.2712366,298.018134 -57.7738535,285.720117 -49.3180173,260.149035 C-42.8595279,240.618079 -40.496828,233.027765 -37.937873,222.695633 C-34.4923172,208.783728 -32.7851489,196.521112 -32.9555994,184.750597 C-33.0341063,179.329277 -33.5472828,173.214939 -34.5268012,165.156843 C-35.1078474,160.376815 -37.6941063,141.317353 -37.6147766,141.917955 C-40.7039797,118.529732 -42.1971696,100.81731 -42.1980797,80.80438 C-42.1992633,54.7806937 -39.3899456,28.5942435 -33.0818634,1.11884155 C-26.4749506,-27.6581427 -20.0856406,-44.9854777 -14.7850273,-49.9299848 C-13.5844552,-51.0499 -13.5572484,-51.0495498 -12.4364402,-49.9296399 C-10.1059681,-47.6010358 -7.43709078,-42.1863031 -4.75922475,-33.8722752 L-3.64250592,-30.4051743 L350.052015,-30.4051743 L357.293438,130.884799 C345.24538,107.401283 311.986851,88.9128169 264.51196,74.9977592 C227.613566,64.1827101 182.685992,56.957102 160.035262,56.7973583 C142.89929,56.6765073 131.472035,57.0081997 118.734667,58.3773595 C101.646852,60.2141555 86.0815261,63.7804332 71.7002749,69.6212337 C35.6694811,84.2547781 9.43243382,112.275995 -4.76667171,157.111208 C-11.1349752,177.219815 -14.6040625,199.887033 -15.592833,224.937647 C-16.8178405,255.973352 -14.3932896,287.531614 -9.04965536,326.078504 C-8.98896003,326.516336 -8.79957392,327.822724 -8.52252464,329.727743 Z"></path>
            </g>
            <g id="Rectangle" transform="translate(149.812876, 635.011913) scale(1, -1) translate(-149.812876, -635.011913) ">
                <use fill="#FFCD94" fill-rule="evenodd" xlink:href="#path-2"></use>
                <path stroke="#000000" stroke-width="10" d="M350.213229,394.072442 L355.018821,394.072442 L350.02275,389.270627 L350.213229,394.072442 Z M364.600259,756.756937 L364.629682,757.498651 L364.787439,756.039228 C364.725002,756.278748 364.662608,756.517982 364.600259,756.756929 Z M351.008699,806.787453 C335.938754,859.714341 324.247956,891.277445 316.348821,900.73433 C316.568252,900.471626 316.821086,900.219511 317.182784,899.954384 C318.148792,899.246296 319.341965,898.806355 320.918217,899.06636 C322.905517,899.394169 324.178885,900.693204 324.752024,902.188629 C324.982733,902.79059 325.058121,903.286276 325.072538,903.774962 C325.08246,904.111266 325.061963,904.320737 325.030123,904.515926 C325.026082,904.540702 325.029169,904.525463 325.038662,904.483986 C325.126149,904.101716 325.342122,903.330648 325.684646,902.188519 C326.003515,901.125267 326.420422,899.775723 327.042784,897.786597 C327.334703,896.853595 328.619856,892.760424 328.955183,891.689858 C333.251356,877.973888 336.521523,867.053865 339.881748,854.783235 C343.343684,842.14118 346.310321,830.080452 348.699311,818.643583 C349.549674,814.572622 350.320594,810.619525 351.008699,806.787455 Z M-2.01939338,880.266548 C-2.06615478,880.477183 -2.11280696,880.680295 -2.1593621,880.875932 C-2.46764884,882.171433 -2.75347979,883.041538 -2.91755513,883.348863 C-2.79619391,883.121545 -2.56405985,882.822112 -2.04576734,882.453207 C-0.897125781,881.635639 0.69960687,881.41063 2.12480419,882.010082 C0.700142022,881.410855 -0.68065296,880.829941 -2.01939338,880.266548 Z M-60.7703481,853.269676 C-61.1616582,852.942361 -61.4342505,852.669756 -61.5933678,852.462736 C-61.578764,852.481736 -61.4781593,852.721143 -61.4556488,853.131604 C-61.4295331,853.607803 -61.5447684,853.981303 -61.6544679,854.150432 C-61.5534833,853.994739 -61.2638962,853.687833 -60.7703481,853.269676 Z M-60.3825801,840.725943 C-60.5251918,840.796742 -60.6640081,840.862758 -60.798958,840.923945 C-61.2653084,841.13539 -61.6400607,841.26712 -61.9002526,841.325402 C-61.964976,841.3399 -61.999704,841.345018 -62.001086,841.345101 C-61.933406,841.341059 -61.8350718,841.345147 -61.7069731,841.36564 C-60.7567795,841.51765 -59.9372132,842.284559 -59.745662,842.923084 C-59.9650664,842.191712 -60.1773571,841.459365 -60.3825801,840.725943 Z M350.213229,394.072442 L364.600259,756.756937 C359.805535,775.132292 355.271902,791.814736 351.008699,806.787453 C356.554124,775.904871 356.720913,752.882624 349.743266,739.376204 C339.958198,720.435547 307.697376,705.495362 259.983496,694.054243 C223.317553,685.262265 179.014825,679.295857 149.963653,678.419409 C94.3232456,676.740787 52.2284691,693.849141 26.3239593,722.632856 C17.2167844,732.752265 11.5902084,759.270239 6.51578159,804.210847 C5.21672975,815.71563 0.986924032,859.130809 0.00595567035,867.166854 C-0.711029488,873.040362 -1.37556328,877.366445 -2.01939338,880.266548 C-32.7507571,867.33364 -41.32139,863.634165 -49.6575108,859.612095 C-54.655731,857.200519 -58.0009818,855.335191 -60.0092532,853.862592 C-60.3000282,853.649377 -60.5534288,853.451121 -60.7703481,853.269676 C-60.7632896,853.263696 -60.7561893,853.257693 -60.7490473,853.251667 C-59.6535614,852.327407 -58.977891,851.868013 -54.4984045,848.934612 C-45.5536366,843.077113 -39.887881,838.572251 -33.972454,831.670554 C-25.3389722,821.597626 -18.5228592,813.778911 -13.654894,808.339605 C-9.75177951,803.978393 -7.1903595,801.266226 -6.76084827,800.928145 C-6.83578558,800.98713 -6.92514389,801.051935 -7.04686456,801.129772 C-7.36623735,801.334004 -7.70863688,801.509501 -8.20729816,801.661524 C-8.87757072,801.849508 -8.87757072,801.849508 -10.1283601,801.851726 C-11.8172035,801.517247 -11.8172035,801.517247 -13.4906076,800.056317 C-14.4965952,798.350461 -14.4965952,798.350461 -14.6157316,797.139437 C-14.5960966,796.255788 -14.5960966,796.255788 -14.4874616,795.7635 C-14.3955223,795.379434 -14.2869917,795.100835 -14.1620993,794.841737 C-14.1117019,794.737183 -14.0695219,794.659762 -14.03166,794.595623 C-14.0183723,794.573114 -14.0354059,794.599235 -14.0734852,794.654235 C-14.3896353,795.110867 -15.078777,796.002294 -16.0306232,797.176055 C-18.2103335,799.863945 -21.4213622,803.616847 -24.9553723,807.58405 C-34.0827894,817.830292 -43.4331209,827.406604 -50.8194387,833.772099 C-54.7953207,837.198496 -58.082551,839.584108 -60.3825801,840.725943 C-65.4492412,822.618799 -66.2079138,803.856061 -63.3486986,782.923168 C-61.0605457,766.171139 -57.5529062,752.211275 -49.079594,723.209798 C-42.629452,701.132994 -40.2710671,692.557874 -37.720559,680.902442 C-34.2951571,665.248879 -32.6002847,651.469865 -32.7692312,638.265397 C-32.8470714,632.181589 -33.3573362,625.300571 -34.3326021,616.219916 C-34.9125847,610.819724 -37.4975727,589.258594 -37.4191746,589.93038 C-40.5140601,563.410612 -42.0109138,543.314288 -42.0118265,520.599887 C-42.0130137,491.055536 -39.1949979,461.325627 -32.8686244,430.138463 C-26.227932,397.401798 -19.7922632,377.648216 -14.3792383,371.933281 C-13.2311416,370.72115 -13.5456822,370.716568 -12.4617373,371.942407 C-10.0554223,374.66372 -7.33492767,380.910708 -4.62280592,390.440999 L-3.58937334,394.072442 L350.213229,394.072442 Z"></path>
            </g>
            <path d="M0,0.509014032 L320,0.509014032 L320,673.509014 C329.084651,430.251599 308.477162,255.72969 258.177535,149.943287 C207.877908,44.1568843 121.81873,-5.65454008 0,0.509014032 Z" id="Rectangle-4" fill-opacity="0.75" fill="#B80400" transform="translate(161.042332, 336.754507) scale(-1, -1) translate(-161.042332, -336.754507) "></path>
            <path d="M2.08466481,0 L322.084665,0 L322.084665,673 C308.452801,527.099317 276.487055,401.255774 226.187428,295.469372 C175.887801,189.682969 101.18688,91.1931781 2.08466481,0 Z" id="Rectangle-4" fill-opacity="0.75" fill="#B80400" transform="translate(162.084665, 336.500000) scale(-1, -1) translate(-162.084665, -336.500000) "></path>
            <path d="M2.08466481,0 L322.084665,0 L322.084665,673 C291.254099,514.075551 250.689003,381.720126 200.389376,275.933723 C150.089749,170.14732 83.9881786,78.1694123 2.08466481,0 Z" id="Rectangle-4" fill-opacity="0.75" fill="#B80400"></path>
        </g>
    </g>
</svg>