<?xml version="1.0" encoding="UTF-8"?>
<svg width="320px" height="839px" viewBox="0 0 320 839" version="1.1" xmlns="http://www.w3.org/2000/svg" xmlns:xlink="http://www.w3.org/1999/xlink">
    <!-- Generator: Sketch 44.1 (41455) - http://www.bohemiancoding.com/sketch -->
    <title>Mobile</title>
    <desc>Created with Sketch.</desc>
    <defs>
        <path d="M0,0 L320,0 L320,839 C299.135601,548.412677 263.657317,337.451313 213.565149,206.115909 C163.472981,74.780505 92.2845976,6.07520203 0,0 Z" id="path-1"></path>
        <path d="M0,0 L320,0 L320,839 C299.135601,548.412677 263.657317,337.451313 213.565149,206.115909 C163.472981,74.780505 92.2845976,6.07520203 0,0 Z" id="path-2"></path>
        <rect id="path-3" x="0" y="0" width="320" height="150"></rect>
        <linearGradient x1="31.5263995%" y1="0%" x2="57.1781932%" y2="100%" id="linearGradient-4">
            <stop stop-color="#EEEEEE" offset="0%"></stop>
            <stop stop-color="#D8D8D8" offset="100%"></stop>
        </linearGradient>
        <rect id="path-5" x="0" y="0" width="320" height="149"></rect>
    </defs>
    <g id="Page-1" stroke="none" stroke-width="1" fill="none" fill-rule="evenodd">
        <g id="Mobile">
            <g id="slit">
                <g id="Rectangle" transform="translate(160.000000, 419.500000) scale(-1, -1) translate(-160.000000, -419.500000) ">
                    <use fill="#FFCD94" fill-rule="evenodd" xlink:href="#path-1"></use>
                    <path stroke="#000000" stroke-width="10" d="M50.4955809,5 C120.967624,29.295002 176.888824,95.9246402 218.236882,204.33408 C261.266048,317.151177 293.498604,488.123274 315.000001,717.356782 L315,5 L50.4955809,5 Z"></path>
                </g>
                <g id="Rectangle">
                    <use fill="#FFCD94" fill-rule="evenodd" xlink:href="#path-2"></use>
                    <path stroke="#000000" stroke-width="10" d="M50.4955809,5 C120.967624,29.295002 176.888824,95.9246402 218.236882,204.33408 C261.266048,317.151177 293.498604,488.123274 315.000001,717.356782 L315,5 L50.4955809,5 Z"></path>
                </g>
            </g>
            <g id="centre" transform="translate(0.000000, 272.000000)">
                <g id="bottom" transform="translate(0.000000, 148.000000)" opacity="0">
                    <g id="Rectangle-2">
                        <use fill="#D8D8D8" fill-rule="evenodd" xlink:href="#path-3"></use>
                        <rect stroke="#979797" stroke-width="1" x="0.5" y="0.5" width="319" height="149"></rect>
                    </g>
                </g>
                <g id="top" opacity="0">
                    <g id="Rectangle-2">
                        <use fill="url(#linearGradient-4)" fill-rule="evenodd" xlink:href="#path-5"></use>
                        <rect stroke="#979797" stroke-width="1" x="0.5" y="0.5" width="319" height="148"></rect>
                    </g>
                </g>
                <path d="M159.75,90.25 C173.187567,90.25 184.671827,95.0155773 194.203125,104.546875 C203.734423,114.078173 208.5,125.562433 208.5,139 C208.5,152.437567 203.734423,163.921827 194.203125,173.453125 C184.671827,182.984423 173.187567,187.75 159.75,187.75 C146.312433,187.75 134.828173,182.984423 125.296875,173.453125 C115.765577,163.921827 111,152.437567 111,139 C111,125.562433 115.765577,114.078173 125.296875,104.546875 C134.828173,95.0155773 146.312433,90.25 159.75,90.25 Z M159.75,177.90625 C170.531304,177.90625 179.7109,174.117225 187.289062,166.539062 C194.867225,158.9609 198.65625,149.781304 198.65625,139 C198.65625,128.218696 194.867225,119.0391 187.289062,111.460938 C179.7109,103.882775 170.531304,100.09375 159.75,100.09375 C148.968696,100.09375 139.7891,103.882775 132.210938,111.460938 C124.632775,119.0391 120.84375,128.218696 120.84375,139 C120.84375,149.781304 124.632775,158.9609 132.210938,166.539062 C139.7891,174.117225 148.968696,177.90625 159.75,177.90625 Z M176.859375,134.078125 C174.828115,134.078125 173.109382,133.414069 171.703125,132.085938 C170.296868,130.757806 169.59375,129.000011 169.59375,126.8125 C169.59375,124.624989 170.296868,122.867194 171.703125,121.539062 C173.109382,120.210931 174.828115,119.546875 176.859375,119.546875 C178.890635,119.546875 180.609368,120.210931 182.015625,121.539062 C183.421882,122.867194 184.125,124.624989 184.125,126.8125 C184.125,129.000011 183.421882,130.757806 182.015625,132.085938 C180.609368,133.414069 178.890635,134.078125 176.859375,134.078125 Z M142.640625,134.078125 C140.609365,134.078125 138.890632,133.414069 137.484375,132.085938 C136.078118,130.757806 135.375,129.000011 135.375,126.8125 C135.375,124.624989 136.078118,122.867194 137.484375,121.539062 C138.890632,120.210931 140.609365,119.546875 142.640625,119.546875 C144.671885,119.546875 146.390618,120.210931 147.796875,121.539062 C149.203132,122.867194 149.90625,124.624989 149.90625,126.8125 C149.90625,129.000011 149.203132,130.757806 147.796875,132.085938 C146.390618,133.414069 144.671885,134.078125 142.640625,134.078125 Z M159.75,165.71875 C154.124972,165.71875 149.08596,164.195328 144.632812,161.148438 C140.179665,158.101547 136.93751,154.000026 134.90625,148.84375 L184.59375,148.84375 C182.56249,154.000026 179.320335,158.101547 174.867188,161.148438 C170.41404,164.195328 165.375028,165.71875 159.75,165.71875 Z" id="ion-android-happy---Ionicons" fill="#001FF5"></path>
                <circle id="Oval" stroke="#979797" fill="#000000" cx="158" cy="140" r="35"></circle>
                <polyline id="Path-2" stroke="#FF0000" stroke-width="5" transform="translate(241.000000, 210.000000) scale(-1, 1) translate(-241.000000, -210.000000) " points="210.668008 245 226.54326 228.678108 206 217.564935 245.416499 214.285714 237.599598 205.023191 230.818913 175 276 175.769944"></polyline>
                <polyline id="Path-2" stroke="#FF0000" stroke-width="5" transform="translate(123.500000, 222.000000) scale(-1, -1) translate(-123.500000, -222.000000) " points="109.200632 257 116.68468 240.678108 107 229.564935 125.582064 226.285714 121.896953 217.023191 118.700345 187 140 187.769944"></polyline>
                <polyline id="Path-2" stroke="#FF0000" stroke-width="5" transform="translate(106.500000, 68.000000) scale(-1, 1) translate(-106.500000, -68.000000) " points="92.2006324 103 99.6846795 86.6781076 90 75.5649351 108.582064 72.2857143 104.896953 63.0231911 101.700345 33 123 33.7699443"></polyline>
                <polyline id="Path-2" stroke="#FF0000" stroke-width="5" points="175.400977 89 186.967232 72.6781076 172 61.5649351 200.717735 58.2857143 195.022564 49.0231911 190.082351 19 223 19.7699443"></polyline>
            </g>
        </g>
    </g>
</svg>